<svg width="585" height="54" viewBox="0 0 585 54" fill="none" xmlns="http://www.w3.org/2000/svg">
<g filter="url(#filter0_d_6_159)">
<path d="M36.072 45.8H29.112V35H18.312C14.024 35 10.68 33.944 8.28 31.832C5.88 29.72 4.68 26.648 4.68 22.616C4.68 18.616 5.88 15.56 8.28 13.448C10.68 11.336 14.024 10.28 18.312 10.28H36.072V45.8ZM18.312 15.8C16.232 15.8 14.632 16.376 13.512 17.528C12.424 18.648 11.88 20.344 11.88 22.616C11.88 24.92 12.424 26.648 13.512 27.8C14.632 28.92 16.232 29.48 18.312 29.48H29.112V15.8H18.312ZM49.2308 35C46.4148 35 44.3508 34.296 43.0388 32.888C41.7588 31.48 41.1188 29.656 41.1188 27.416V10.28H48.0788V26.6C48.0788 28.52 49.0388 29.48 50.9588 29.48H60.9428C62.8628 29.48 63.8228 28.52 63.8228 26.6V10.28H70.7828V27.416C70.7828 29.656 70.1268 31.48 68.8148 32.888C67.5348 34.296 65.4868 35 62.6708 35H49.2308ZM82.3879 35C79.7959 35 77.8119 34.344 76.4359 33.032C75.0599 31.72 74.3719 29.848 74.3719 27.416C74.3719 25.016 75.0599 23.16 76.4359 21.848C77.8119 20.536 79.7959 19.88 82.3879 19.88H100.82V18.728C100.82 16.776 99.8599 15.8 97.9399 15.8H77.5879V10.28H99.7639C102.676 10.28 104.74 10.952 105.956 12.296C107.172 13.608 107.78 15.464 107.78 17.864V35H82.3879ZM83.6359 29.48H100.82V25.4H83.6359C83.0279 25.4 82.5479 25.592 82.1959 25.976C81.8759 26.328 81.7159 26.808 81.7159 27.416C81.7159 28.024 81.8759 28.52 82.1959 28.904C82.5479 29.288 83.0279 29.48 83.6359 29.48ZM113.078 35V10.28H134.63C137.446 10.28 139.494 10.984 140.774 12.392C142.086 13.768 142.742 15.592 142.742 17.864V35H135.781V18.68C135.781 16.76 134.822 15.8 132.902 15.8H120.038V35H113.078ZM147.765 35V0.679998H154.725V35H147.765ZM165.567 45.8V40.28H180.063C181.983 40.28 182.943 39.304 182.943 37.352V35H168.111C165.295 35 163.231 34.296 161.919 32.888C160.639 31.48 159.999 29.656 159.999 27.416V10.28H166.959V26.6C166.959 28.52 167.919 29.48 169.839 29.48H182.703V10.28H189.903V38.216C189.903 40.488 189.247 42.312 187.935 43.688C186.623 45.096 184.575 45.8 181.791 45.8H165.567ZM207.875 35.24C203.587 35.24 200.243 34.184 197.843 32.072C195.443 29.928 194.243 26.792 194.243 22.664C194.243 18.504 195.443 15.368 197.843 13.256C200.243 11.112 203.587 10.04 207.875 10.04H223.955V15.56H207.875C205.795 15.56 204.195 16.136 203.075 17.288C201.987 18.44 201.443 20.232 201.443 22.664C201.443 25.064 201.987 26.84 203.075 27.992C204.195 29.144 205.795 29.72 207.875 29.72H224.435V35.24H207.875ZM240.687 35.24C236.399 35.24 233.055 34.184 230.655 32.072C228.255 29.928 227.055 26.792 227.055 22.664C227.055 18.504 228.255 15.368 230.655 13.256C233.055 11.112 236.399 10.04 240.687 10.04H249.567C253.855 10.04 257.199 11.112 259.599 13.256C261.999 15.368 263.199 18.504 263.199 22.664C263.199 26.792 261.999 29.928 259.599 32.072C257.199 34.184 253.855 35.24 249.567 35.24H240.687ZM240.687 29.72H249.567C251.647 29.72 253.231 29.144 254.319 27.992C255.439 26.84 255.999 25.064 255.999 22.664C255.999 20.232 255.439 18.44 254.319 17.288C253.231 16.136 251.647 15.56 249.567 15.56H240.687C238.607 15.56 237.007 16.136 235.887 17.288C234.799 18.44 234.255 20.232 234.255 22.664C234.255 25.064 234.799 26.84 235.887 27.992C237.007 29.144 238.607 29.72 240.687 29.72ZM267.531 35V10.28H289.083C291.899 10.28 293.947 10.984 295.227 12.392C296.539 13.768 297.195 15.592 297.195 17.864V35H290.235V18.68C290.235 16.76 289.275 15.8 287.355 15.8H274.491V35H267.531ZM308.074 45.8V40.28H322.57C324.49 40.28 325.45 39.304 325.45 37.352V35H314.89C310.602 35 307.258 33.944 304.858 31.832C302.458 29.72 301.258 26.664 301.258 22.664C301.258 18.632 302.458 15.56 304.858 13.448C307.258 11.336 310.602 10.28 314.89 10.28H332.41V38.216C332.41 40.488 331.754 42.312 330.442 43.688C329.13 45.096 327.082 45.8 324.298 45.8H308.074ZM314.89 29.48H325.45V15.8H314.89C312.81 15.8 311.21 16.376 310.09 17.528C309.002 18.648 308.458 20.36 308.458 22.664C308.458 24.936 309.002 26.648 310.09 27.8C311.21 28.92 312.81 29.48 314.89 29.48ZM345.959 35L335.543 10.28H342.839L350.903 29.432H353.303L361.367 10.28H368.663L358.247 35H345.959ZM371.781 35V10.28H378.741V35H371.781ZM371.733 6.2V0.775997H378.789V6.2H371.733ZM396.687 35.24C392.399 35.24 389.055 34.184 386.655 32.072C384.255 29.928 383.055 26.792 383.055 22.664C383.055 18.504 384.255 15.368 386.655 13.256C389.055 11.112 392.399 10.04 396.687 10.04H408.687C411.503 10.04 413.647 10.712 415.119 12.056C416.623 13.368 417.375 15.256 417.375 17.72C417.375 22.744 414.479 25.256 408.687 25.256H390.543C391.215 28.232 393.263 29.72 396.687 29.72H416.127V35.24H396.687ZM396.687 15.56C393.391 15.56 391.359 16.952 390.591 19.736H408.351C408.991 19.736 409.487 19.544 409.839 19.16C410.223 18.776 410.415 18.248 410.415 17.576C410.415 16.232 409.727 15.56 408.351 15.56H396.687ZM434.375 35.24C430.087 35.24 426.743 34.184 424.343 32.072C421.943 29.928 420.743 26.792 420.743 22.664C420.743 18.504 421.943 15.368 424.343 13.256C426.743 11.112 430.087 10.04 434.375 10.04H450.455V15.56H434.375C432.295 15.56 430.695 16.136 429.575 17.288C428.487 18.44 427.943 20.232 427.943 22.664C427.943 25.064 428.487 26.84 429.575 27.992C430.695 29.144 432.295 29.72 434.375 29.72H450.935V35.24H434.375ZM454.755 35V28.136H462.435V35H454.755ZM480.734 35.24C476.446 35.24 473.102 34.184 470.702 32.072C468.302 29.928 467.102 26.792 467.102 22.664C467.102 18.504 468.302 15.368 470.702 13.256C473.102 11.112 476.446 10.04 480.734 10.04H496.814V15.56H480.734C478.654 15.56 477.054 16.136 475.934 17.288C474.846 18.44 474.302 20.232 474.302 22.664C474.302 25.064 474.846 26.84 475.934 27.992C477.054 29.144 478.654 29.72 480.734 29.72H497.294V35.24H480.734ZM513.546 35.24C509.258 35.24 505.914 34.184 503.514 32.072C501.114 29.928 499.914 26.792 499.914 22.664C499.914 18.504 501.114 15.368 503.514 13.256C505.914 11.112 509.258 10.04 513.546 10.04H522.426C526.714 10.04 530.058 11.112 532.458 13.256C534.858 15.368 536.058 18.504 536.058 22.664C536.058 26.792 534.858 29.928 532.458 32.072C530.058 34.184 526.714 35.24 522.426 35.24H513.546ZM513.546 29.72H522.426C524.506 29.72 526.09 29.144 527.178 27.992C528.298 26.84 528.858 25.064 528.858 22.664C528.858 20.232 528.298 18.44 527.178 17.288C526.09 16.136 524.506 15.56 522.426 15.56H513.546C511.466 15.56 509.866 16.136 508.746 17.288C507.658 18.44 507.114 20.232 507.114 22.664C507.114 25.064 507.658 26.84 508.746 27.992C509.866 29.144 511.466 29.72 513.546 29.72ZM540.39 35V10.28H572.406C575.222 10.28 577.286 10.984 578.598 12.392C579.91 13.768 580.566 15.592 580.566 17.864V35H573.606V18.728C573.606 16.776 572.614 15.8 570.63 15.8H563.958V35H556.998V15.8H547.35V35H540.39Z" fill="#1E1E1E"/>
</g>
<defs>
<filter id="filter0_d_6_159" x="0.68" y="0.68" width="583.886" height="53.12" filterUnits="userSpaceOnUse" color-interpolation-filters="sRGB">
<feFlood flood-opacity="0" result="BackgroundImageFix"/>
<feColorMatrix in="SourceAlpha" type="matrix" values="0 0 0 0 0 0 0 0 0 0 0 0 0 0 0 0 0 0 127 0" result="hardAlpha"/>
<feOffset dy="4"/>
<feGaussianBlur stdDeviation="2"/>
<feComposite in2="hardAlpha" operator="out"/>
<feColorMatrix type="matrix" values="0 0 0 0 0 0 0 0 0 0 0 0 0 0 0 0 0 0 0.25 0"/>
<feBlend mode="normal" in2="BackgroundImageFix" result="effect1_dropShadow_6_159"/>
<feBlend mode="normal" in="SourceGraphic" in2="effect1_dropShadow_6_159" result="shape"/>
</filter>
</defs>
</svg>
