<svg width="577" height="46" viewBox="0 0 577 46" fill="none" xmlns="http://www.w3.org/2000/svg">
<path d="M32.072 45.8H25.112V35H14.312C10.024 35 6.68 33.944 4.28 31.832C1.88 29.72 0.68 26.648 0.68 22.616C0.68 18.616 1.88 15.56 4.28 13.448C6.68 11.336 10.024 10.28 14.312 10.28H32.072V45.8ZM14.312 15.8C12.232 15.8 10.632 16.376 9.512 17.528C8.424 18.648 7.88 20.344 7.88 22.616C7.88 24.92 8.424 26.648 9.512 27.8C10.632 28.92 12.232 29.48 14.312 29.48H25.112V15.8H14.312ZM45.2308 35C42.4148 35 40.3508 34.296 39.0388 32.888C37.7588 31.48 37.1188 29.656 37.1188 27.416V10.28H44.0788V26.6C44.0788 28.52 45.0388 29.48 46.9588 29.48H56.9428C58.8628 29.48 59.8228 28.52 59.8228 26.6V10.28H66.7828V27.416C66.7828 29.656 66.1268 31.48 64.8148 32.888C63.5348 34.296 61.4868 35 58.6708 35H45.2308ZM78.3879 35C75.7959 35 73.8119 34.344 72.4359 33.032C71.0599 31.72 70.3719 29.848 70.3719 27.416C70.3719 25.016 71.0599 23.16 72.4359 21.848C73.8119 20.536 75.7959 19.88 78.3879 19.88H96.8199V18.728C96.8199 16.776 95.8599 15.8 93.9399 15.8H73.5879V10.28H95.7639C98.6759 10.28 100.74 10.952 101.956 12.296C103.172 13.608 103.78 15.464 103.78 17.864V35H78.3879ZM79.6359 29.48H96.8199V25.4H79.6359C79.0279 25.4 78.5479 25.592 78.1959 25.976C77.8759 26.328 77.7159 26.808 77.7159 27.416C77.7159 28.024 77.8759 28.52 78.1959 28.904C78.5479 29.288 79.0279 29.48 79.6359 29.48ZM109.078 35V10.28H130.63C133.446 10.28 135.494 10.984 136.774 12.392C138.086 13.768 138.742 15.592 138.742 17.864V35H131.781V18.68C131.781 16.76 130.822 15.8 128.902 15.8H116.038V35H109.078ZM143.765 35V0.679998H150.725V35H143.765ZM161.567 45.8V40.28H176.063C177.983 40.28 178.943 39.304 178.943 37.352V35H164.111C161.295 35 159.231 34.296 157.919 32.888C156.639 31.48 155.999 29.656 155.999 27.416V10.28H162.959V26.6C162.959 28.52 163.919 29.48 165.839 29.48H178.703V10.28H185.903V38.216C185.903 40.488 185.247 42.312 183.935 43.688C182.623 45.096 180.575 45.8 177.791 45.8H161.567ZM203.875 35.24C199.587 35.24 196.243 34.184 193.843 32.072C191.443 29.928 190.243 26.792 190.243 22.664C190.243 18.504 191.443 15.368 193.843 13.256C196.243 11.112 199.587 10.04 203.875 10.04H219.955V15.56H203.875C201.795 15.56 200.195 16.136 199.075 17.288C197.987 18.44 197.443 20.232 197.443 22.664C197.443 25.064 197.987 26.84 199.075 27.992C200.195 29.144 201.795 29.72 203.875 29.72H220.435V35.24H203.875ZM236.687 35.24C232.399 35.24 229.055 34.184 226.655 32.072C224.255 29.928 223.055 26.792 223.055 22.664C223.055 18.504 224.255 15.368 226.655 13.256C229.055 11.112 232.399 10.04 236.687 10.04H245.567C249.855 10.04 253.199 11.112 255.599 13.256C257.999 15.368 259.199 18.504 259.199 22.664C259.199 26.792 257.999 29.928 255.599 32.072C253.199 34.184 249.855 35.24 245.567 35.24H236.687ZM236.687 29.72H245.567C247.647 29.72 249.231 29.144 250.319 27.992C251.439 26.84 251.999 25.064 251.999 22.664C251.999 20.232 251.439 18.44 250.319 17.288C249.231 16.136 247.647 15.56 245.567 15.56H236.687C234.607 15.56 233.007 16.136 231.887 17.288C230.799 18.44 230.255 20.232 230.255 22.664C230.255 25.064 230.799 26.84 231.887 27.992C233.007 29.144 234.607 29.72 236.687 29.72ZM263.531 35V10.28H285.083C287.899 10.28 289.947 10.984 291.227 12.392C292.539 13.768 293.195 15.592 293.195 17.864V35H286.235V18.68C286.235 16.76 285.275 15.8 283.355 15.8H270.491V35H263.531ZM304.074 45.8V40.28H318.57C320.49 40.28 321.45 39.304 321.45 37.352V35H310.89C306.602 35 303.258 33.944 300.858 31.832C298.458 29.72 297.258 26.664 297.258 22.664C297.258 18.632 298.458 15.56 300.858 13.448C303.258 11.336 306.602 10.28 310.89 10.28H328.41V38.216C328.41 40.488 327.754 42.312 326.442 43.688C325.13 45.096 323.082 45.8 320.298 45.8H304.074ZM310.89 29.48H321.45V15.8H310.89C308.81 15.8 307.21 16.376 306.09 17.528C305.002 18.648 304.458 20.36 304.458 22.664C304.458 24.936 305.002 26.648 306.09 27.8C307.21 28.92 308.81 29.48 310.89 29.48ZM341.959 35L331.543 10.28H338.839L346.903 29.432H349.303L357.367 10.28H364.663L354.247 35H341.959ZM367.781 35V10.28H374.741V35H367.781ZM367.733 6.2V0.775997H374.789V6.2H367.733ZM392.687 35.24C388.399 35.24 385.055 34.184 382.655 32.072C380.255 29.928 379.055 26.792 379.055 22.664C379.055 18.504 380.255 15.368 382.655 13.256C385.055 11.112 388.399 10.04 392.687 10.04H404.687C407.503 10.04 409.647 10.712 411.119 12.056C412.623 13.368 413.375 15.256 413.375 17.72C413.375 22.744 410.479 25.256 404.687 25.256H386.543C387.215 28.232 389.263 29.72 392.687 29.72H412.127V35.24H392.687ZM392.687 15.56C389.391 15.56 387.359 16.952 386.591 19.736H404.351C404.991 19.736 405.487 19.544 405.839 19.16C406.223 18.776 406.415 18.248 406.415 17.576C406.415 16.232 405.727 15.56 404.351 15.56H392.687ZM430.375 35.24C426.087 35.24 422.743 34.184 420.343 32.072C417.943 29.928 416.743 26.792 416.743 22.664C416.743 18.504 417.943 15.368 420.343 13.256C422.743 11.112 426.087 10.04 430.375 10.04H446.455V15.56H430.375C428.295 15.56 426.695 16.136 425.575 17.288C424.487 18.44 423.943 20.232 423.943 22.664C423.943 25.064 424.487 26.84 425.575 27.992C426.695 29.144 428.295 29.72 430.375 29.72H446.935V35.24H430.375ZM450.755 35V28.136H458.435V35H450.755ZM476.734 35.24C472.446 35.24 469.102 34.184 466.702 32.072C464.302 29.928 463.102 26.792 463.102 22.664C463.102 18.504 464.302 15.368 466.702 13.256C469.102 11.112 472.446 10.04 476.734 10.04H492.814V15.56H476.734C474.654 15.56 473.054 16.136 471.934 17.288C470.846 18.44 470.302 20.232 470.302 22.664C470.302 25.064 470.846 26.84 471.934 27.992C473.054 29.144 474.654 29.72 476.734 29.72H493.294V35.24H476.734ZM509.546 35.24C505.258 35.24 501.914 34.184 499.514 32.072C497.114 29.928 495.914 26.792 495.914 22.664C495.914 18.504 497.114 15.368 499.514 13.256C501.914 11.112 505.258 10.04 509.546 10.04H518.426C522.714 10.04 526.058 11.112 528.458 13.256C530.858 15.368 532.058 18.504 532.058 22.664C532.058 26.792 530.858 29.928 528.458 32.072C526.058 34.184 522.714 35.24 518.426 35.24H509.546ZM509.546 29.72H518.426C520.506 29.72 522.09 29.144 523.178 27.992C524.298 26.84 524.858 25.064 524.858 22.664C524.858 20.232 524.298 18.44 523.178 17.288C522.09 16.136 520.506 15.56 518.426 15.56H509.546C507.466 15.56 505.866 16.136 504.746 17.288C503.658 18.44 503.114 20.232 503.114 22.664C503.114 25.064 503.658 26.84 504.746 27.992C505.866 29.144 507.466 29.72 509.546 29.72ZM536.39 35V10.28H568.406C571.222 10.28 573.286 10.984 574.598 12.392C575.91 13.768 576.566 15.592 576.566 17.864V35H569.606V18.728C569.606 16.776 568.614 15.8 566.63 15.8H559.958V35H552.998V15.8H543.35V35H536.39Z" fill="#E5E5E5"/>
</svg>
